<mxfile host="app.diagrams.net" modified="2021-10-17T09:12:58.812Z" agent="5.0 (Macintosh)" etag="DMP_MqLFTvB6INQIPLyK" version="15.5.4" type="github">
  <diagram id="Bh91wp4Lt3wICjjUlo0v" name="第 1 页">
    <mxGraphModel dx="1186" dy="683" grid="0" gridSize="10" guides="1" tooltips="1" connect="1" arrows="1" fold="1" page="1" pageScale="1" pageWidth="827" pageHeight="1169" math="0" shadow="0">
      <root>
        <mxCell id="0" />
        <mxCell id="1" parent="0" />
        <mxCell id="IyXIojNbKUUZndofW9Dl-1" value="输出层" style="text;html=1;strokeColor=none;fillColor=none;align=center;verticalAlign=middle;whiteSpace=wrap;rounded=0;fontSize=18;" vertex="1" parent="1">
          <mxGeometry x="102" y="263" width="60" height="30" as="geometry" />
        </mxCell>
        <mxCell id="IyXIojNbKUUZndofW9Dl-2" value="隐含层" style="text;html=1;strokeColor=none;fillColor=none;align=center;verticalAlign=middle;whiteSpace=wrap;rounded=0;fontSize=18;" vertex="1" parent="1">
          <mxGeometry x="102" y="362" width="60" height="30" as="geometry" />
        </mxCell>
        <mxCell id="IyXIojNbKUUZndofW9Dl-3" value="输入层" style="text;html=1;strokeColor=none;fillColor=none;align=center;verticalAlign=middle;whiteSpace=wrap;rounded=0;fontSize=18;" vertex="1" parent="1">
          <mxGeometry x="102" y="461" width="60" height="30" as="geometry" />
        </mxCell>
        <mxCell id="IyXIojNbKUUZndofW9Dl-4" value="&lt;i&gt;y(1)&lt;/i&gt;" style="ellipse;whiteSpace=wrap;html=1;aspect=fixed;fontSize=18;" vertex="1" parent="1">
          <mxGeometry x="241" y="241.5" width="57" height="57" as="geometry" />
        </mxCell>
        <mxCell id="IyXIojNbKUUZndofW9Dl-5" value="&lt;i&gt;y(m)&lt;/i&gt;" style="ellipse;whiteSpace=wrap;html=1;aspect=fixed;fontSize=18;" vertex="1" parent="1">
          <mxGeometry x="629" y="241.5" width="57" height="57" as="geometry" />
        </mxCell>
        <mxCell id="IyXIojNbKUUZndofW9Dl-17" style="rounded=0;orthogonalLoop=1;jettySize=auto;html=1;exitX=0.5;exitY=0;exitDx=0;exitDy=0;fontSize=32;" edge="1" parent="1" source="IyXIojNbKUUZndofW9Dl-6" target="IyXIojNbKUUZndofW9Dl-4">
          <mxGeometry relative="1" as="geometry" />
        </mxCell>
        <mxCell id="IyXIojNbKUUZndofW9Dl-18" style="edgeStyle=none;rounded=0;orthogonalLoop=1;jettySize=auto;html=1;exitX=1;exitY=0;exitDx=0;exitDy=0;fontSize=32;" edge="1" parent="1" source="IyXIojNbKUUZndofW9Dl-6" target="IyXIojNbKUUZndofW9Dl-5">
          <mxGeometry relative="1" as="geometry" />
        </mxCell>
        <mxCell id="IyXIojNbKUUZndofW9Dl-6" value="&lt;i&gt;h(1)&lt;/i&gt;" style="ellipse;whiteSpace=wrap;html=1;aspect=fixed;fontSize=18;" vertex="1" parent="1">
          <mxGeometry x="184" y="344" width="57" height="57" as="geometry" />
        </mxCell>
        <mxCell id="IyXIojNbKUUZndofW9Dl-19" style="edgeStyle=none;rounded=0;orthogonalLoop=1;jettySize=auto;html=1;exitX=0;exitY=0;exitDx=0;exitDy=0;entryX=1;entryY=1;entryDx=0;entryDy=0;fontSize=32;" edge="1" parent="1" source="IyXIojNbKUUZndofW9Dl-7" target="IyXIojNbKUUZndofW9Dl-4">
          <mxGeometry relative="1" as="geometry" />
        </mxCell>
        <mxCell id="IyXIojNbKUUZndofW9Dl-22" style="edgeStyle=none;rounded=0;orthogonalLoop=1;jettySize=auto;html=1;exitX=1;exitY=0;exitDx=0;exitDy=0;entryX=0;entryY=1;entryDx=0;entryDy=0;fontSize=32;" edge="1" parent="1" source="IyXIojNbKUUZndofW9Dl-7" target="IyXIojNbKUUZndofW9Dl-5">
          <mxGeometry relative="1" as="geometry" />
        </mxCell>
        <mxCell id="IyXIojNbKUUZndofW9Dl-7" value="&lt;i&gt;h(2)&lt;/i&gt;" style="ellipse;whiteSpace=wrap;html=1;aspect=fixed;fontSize=18;" vertex="1" parent="1">
          <mxGeometry x="316" y="344" width="57" height="57" as="geometry" />
        </mxCell>
        <mxCell id="IyXIojNbKUUZndofW9Dl-24" style="edgeStyle=none;rounded=0;orthogonalLoop=1;jettySize=auto;html=1;exitX=1;exitY=0;exitDx=0;exitDy=0;entryX=0.263;entryY=0.974;entryDx=0;entryDy=0;entryPerimeter=0;fontSize=32;" edge="1" parent="1" source="IyXIojNbKUUZndofW9Dl-8" target="IyXIojNbKUUZndofW9Dl-5">
          <mxGeometry relative="1" as="geometry" />
        </mxCell>
        <mxCell id="IyXIojNbKUUZndofW9Dl-35" style="edgeStyle=none;rounded=0;orthogonalLoop=1;jettySize=auto;html=1;exitX=0;exitY=0;exitDx=0;exitDy=0;entryX=0.965;entryY=0.711;entryDx=0;entryDy=0;entryPerimeter=0;fontSize=32;" edge="1" parent="1" source="IyXIojNbKUUZndofW9Dl-8" target="IyXIojNbKUUZndofW9Dl-4">
          <mxGeometry relative="1" as="geometry" />
        </mxCell>
        <mxCell id="IyXIojNbKUUZndofW9Dl-8" value="&lt;i&gt;h(k-1)&lt;/i&gt;" style="ellipse;whiteSpace=wrap;html=1;aspect=fixed;fontSize=18;" vertex="1" parent="1">
          <mxGeometry x="545" y="344" width="57" height="57" as="geometry" />
        </mxCell>
        <mxCell id="IyXIojNbKUUZndofW9Dl-25" style="edgeStyle=none;rounded=0;orthogonalLoop=1;jettySize=auto;html=1;exitX=0.5;exitY=0;exitDx=0;exitDy=0;entryX=1;entryY=1;entryDx=0;entryDy=0;fontSize=32;" edge="1" parent="1" source="IyXIojNbKUUZndofW9Dl-9" target="IyXIojNbKUUZndofW9Dl-5">
          <mxGeometry relative="1" as="geometry" />
        </mxCell>
        <mxCell id="IyXIojNbKUUZndofW9Dl-37" style="edgeStyle=none;rounded=0;orthogonalLoop=1;jettySize=auto;html=1;exitX=0;exitY=0;exitDx=0;exitDy=0;entryX=1;entryY=0.5;entryDx=0;entryDy=0;fontSize=32;" edge="1" parent="1" source="IyXIojNbKUUZndofW9Dl-9" target="IyXIojNbKUUZndofW9Dl-4">
          <mxGeometry relative="1" as="geometry" />
        </mxCell>
        <mxCell id="IyXIojNbKUUZndofW9Dl-9" value="&lt;i&gt;h(k)&lt;/i&gt;" style="ellipse;whiteSpace=wrap;html=1;aspect=fixed;fontSize=18;" vertex="1" parent="1">
          <mxGeometry x="691" y="344" width="57" height="57" as="geometry" />
        </mxCell>
        <mxCell id="IyXIojNbKUUZndofW9Dl-20" style="edgeStyle=none;rounded=0;orthogonalLoop=1;jettySize=auto;html=1;exitX=0;exitY=0;exitDx=0;exitDy=0;entryX=0.737;entryY=0.93;entryDx=0;entryDy=0;entryPerimeter=0;fontSize=32;" edge="1" parent="1" source="IyXIojNbKUUZndofW9Dl-10" target="IyXIojNbKUUZndofW9Dl-6">
          <mxGeometry relative="1" as="geometry" />
        </mxCell>
        <mxCell id="IyXIojNbKUUZndofW9Dl-30" style="edgeStyle=none;rounded=0;orthogonalLoop=1;jettySize=auto;html=1;exitX=0.5;exitY=0;exitDx=0;exitDy=0;entryX=0;entryY=1;entryDx=0;entryDy=0;fontSize=32;" edge="1" parent="1" source="IyXIojNbKUUZndofW9Dl-10" target="IyXIojNbKUUZndofW9Dl-7">
          <mxGeometry relative="1" as="geometry" />
        </mxCell>
        <mxCell id="IyXIojNbKUUZndofW9Dl-31" style="edgeStyle=none;rounded=0;orthogonalLoop=1;jettySize=auto;html=1;exitX=1;exitY=0;exitDx=0;exitDy=0;entryX=0;entryY=0.5;entryDx=0;entryDy=0;fontSize=32;" edge="1" parent="1" source="IyXIojNbKUUZndofW9Dl-10" target="IyXIojNbKUUZndofW9Dl-8">
          <mxGeometry relative="1" as="geometry" />
        </mxCell>
        <mxCell id="IyXIojNbKUUZndofW9Dl-40" style="edgeStyle=none;rounded=0;orthogonalLoop=1;jettySize=auto;html=1;fontSize=32;entryX=0;entryY=0.684;entryDx=0;entryDy=0;entryPerimeter=0;" edge="1" parent="1" target="IyXIojNbKUUZndofW9Dl-9">
          <mxGeometry relative="1" as="geometry">
            <mxPoint x="299" y="457" as="sourcePoint" />
          </mxGeometry>
        </mxCell>
        <mxCell id="IyXIojNbKUUZndofW9Dl-10" value="&lt;i&gt;x(1)&lt;/i&gt;" style="ellipse;whiteSpace=wrap;html=1;aspect=fixed;fontSize=18;" vertex="1" parent="1">
          <mxGeometry x="241" y="439" width="57" height="57" as="geometry" />
        </mxCell>
        <mxCell id="IyXIojNbKUUZndofW9Dl-21" style="edgeStyle=none;rounded=0;orthogonalLoop=1;jettySize=auto;html=1;exitX=0;exitY=0.5;exitDx=0;exitDy=0;entryX=1;entryY=1;entryDx=0;entryDy=0;fontSize=32;" edge="1" parent="1" source="IyXIojNbKUUZndofW9Dl-11" target="IyXIojNbKUUZndofW9Dl-6">
          <mxGeometry relative="1" as="geometry" />
        </mxCell>
        <mxCell id="IyXIojNbKUUZndofW9Dl-27" style="edgeStyle=none;rounded=0;orthogonalLoop=1;jettySize=auto;html=1;exitX=1;exitY=0.5;exitDx=0;exitDy=0;fontSize=32;" edge="1" parent="1" source="IyXIojNbKUUZndofW9Dl-11">
          <mxGeometry relative="1" as="geometry">
            <mxPoint x="703" y="392" as="targetPoint" />
          </mxGeometry>
        </mxCell>
        <mxCell id="IyXIojNbKUUZndofW9Dl-28" style="edgeStyle=none;rounded=0;orthogonalLoop=1;jettySize=auto;html=1;exitX=1;exitY=0;exitDx=0;exitDy=0;entryX=0.281;entryY=0.947;entryDx=0;entryDy=0;entryPerimeter=0;fontSize=32;" edge="1" parent="1" source="IyXIojNbKUUZndofW9Dl-11" target="IyXIojNbKUUZndofW9Dl-8">
          <mxGeometry relative="1" as="geometry" />
        </mxCell>
        <mxCell id="IyXIojNbKUUZndofW9Dl-29" style="edgeStyle=none;rounded=0;orthogonalLoop=1;jettySize=auto;html=1;exitX=0;exitY=0;exitDx=0;exitDy=0;fontSize=32;" edge="1" parent="1" source="IyXIojNbKUUZndofW9Dl-11" target="IyXIojNbKUUZndofW9Dl-7">
          <mxGeometry relative="1" as="geometry" />
        </mxCell>
        <mxCell id="IyXIojNbKUUZndofW9Dl-11" value="&lt;i&gt;x(2)&lt;/i&gt;" style="ellipse;whiteSpace=wrap;html=1;aspect=fixed;fontSize=18;" vertex="1" parent="1">
          <mxGeometry x="394" y="439" width="57" height="57" as="geometry" />
        </mxCell>
        <mxCell id="IyXIojNbKUUZndofW9Dl-26" style="edgeStyle=none;rounded=0;orthogonalLoop=1;jettySize=auto;html=1;exitX=1;exitY=0;exitDx=0;exitDy=0;fontSize=32;" edge="1" parent="1" source="IyXIojNbKUUZndofW9Dl-12" target="IyXIojNbKUUZndofW9Dl-9">
          <mxGeometry relative="1" as="geometry" />
        </mxCell>
        <mxCell id="IyXIojNbKUUZndofW9Dl-33" style="edgeStyle=none;rounded=0;orthogonalLoop=1;jettySize=auto;html=1;exitX=0;exitY=0;exitDx=0;exitDy=0;entryX=1;entryY=1;entryDx=0;entryDy=0;fontSize=32;" edge="1" parent="1" source="IyXIojNbKUUZndofW9Dl-12" target="IyXIojNbKUUZndofW9Dl-8">
          <mxGeometry relative="1" as="geometry" />
        </mxCell>
        <mxCell id="IyXIojNbKUUZndofW9Dl-41" style="edgeStyle=none;rounded=0;orthogonalLoop=1;jettySize=auto;html=1;exitX=0.053;exitY=0.316;exitDx=0;exitDy=0;entryX=1;entryY=0.5;entryDx=0;entryDy=0;fontSize=32;exitPerimeter=0;" edge="1" parent="1" source="IyXIojNbKUUZndofW9Dl-12" target="IyXIojNbKUUZndofW9Dl-7">
          <mxGeometry relative="1" as="geometry" />
        </mxCell>
        <mxCell id="IyXIojNbKUUZndofW9Dl-42" style="edgeStyle=none;rounded=0;orthogonalLoop=1;jettySize=auto;html=1;exitX=0;exitY=0.5;exitDx=0;exitDy=0;entryX=0.982;entryY=0.667;entryDx=0;entryDy=0;entryPerimeter=0;fontSize=32;" edge="1" parent="1" source="IyXIojNbKUUZndofW9Dl-12" target="IyXIojNbKUUZndofW9Dl-6">
          <mxGeometry relative="1" as="geometry" />
        </mxCell>
        <mxCell id="IyXIojNbKUUZndofW9Dl-12" value="&lt;i&gt;x(n)&lt;/i&gt;" style="ellipse;whiteSpace=wrap;html=1;aspect=fixed;fontSize=18;" vertex="1" parent="1">
          <mxGeometry x="629" y="434" width="57" height="57" as="geometry" />
        </mxCell>
        <mxCell id="IyXIojNbKUUZndofW9Dl-13" value="&lt;font style=&quot;font-size: 32px&quot;&gt;...&lt;/font&gt;" style="text;html=1;strokeColor=none;fillColor=none;align=center;verticalAlign=middle;whiteSpace=wrap;rounded=0;fontSize=18;" vertex="1" parent="1">
          <mxGeometry x="510" y="447.5" width="60" height="30" as="geometry" />
        </mxCell>
        <mxCell id="IyXIojNbKUUZndofW9Dl-14" value="&lt;font style=&quot;font-size: 32px&quot;&gt;...&lt;/font&gt;" style="text;html=1;strokeColor=none;fillColor=none;align=center;verticalAlign=middle;whiteSpace=wrap;rounded=0;fontSize=18;" vertex="1" parent="1">
          <mxGeometry x="429" y="353.5" width="60" height="30" as="geometry" />
        </mxCell>
        <mxCell id="IyXIojNbKUUZndofW9Dl-16" value="&lt;font style=&quot;font-size: 32px&quot;&gt;...&lt;/font&gt;" style="text;html=1;strokeColor=none;fillColor=none;align=center;verticalAlign=middle;whiteSpace=wrap;rounded=0;fontSize=18;" vertex="1" parent="1">
          <mxGeometry x="418" y="246" width="60" height="30" as="geometry" />
        </mxCell>
      </root>
    </mxGraphModel>
  </diagram>
</mxfile>
